<svg width="18" height="16" viewBox="0 0 18 16" fill="none" xmlns="http://www.w3.org/2000/svg">
<path opacity="0.23" d="M12.9438 3.93942L18 6.47191V13.3483L12.9438 15.8808L7.87885 13.3659V10.5432L5.06497 11.9414L0 9.42648L0.00879336 2.53249L5.06497 0L10.1212 2.53249L10.1299 5.35515L12.9438 3.93942ZM16.1798 6.81485L12.9438 5.20567L9.70786 6.81485L12.9438 8.43283L16.1798 6.81485ZM8.30093 2.87543L5.06497 1.26624L1.82902 2.87543L5.06497 4.4934L8.30093 2.87543ZM1.13434 3.78994L1.12555 8.72301L4.5022 10.4025V5.46947L1.13434 3.78994ZM5.62775 10.4025L7.88764 9.28578V6.47191L9.0044 5.91793L8.9956 3.78994L5.62775 5.46947V10.4025ZM9.01319 7.72936L9.0044 12.6624L12.381 14.342V9.40889L9.01319 7.72936ZM13.5066 14.342L16.8744 12.6536V7.72936L13.5066 9.40889V14.342Z" fill="#3F4E65"/>
</svg>
